<svg width="18" height="18" viewBox="0 0 18 18" fill="none" xmlns="http://www.w3.org/2000/svg">
<path d="M4.8101 6.21021H1.29138V17.5766H4.8101V6.21021Z" fill="#3E3E3D"/>
<path d="M3.03324 4.72185C3.44882 4.72539 3.85609 4.60539 4.20336 4.37708C4.55063 4.14877 4.82225 3.82244 4.98375 3.4395C5.14525 3.05657 5.18934 2.63428 5.11043 2.22624C5.03153 1.8182 4.83319 1.4428 4.54057 1.14767C4.24796 0.852545 3.87427 0.650998 3.46692 0.568608C3.05957 0.486218 2.63692 0.526698 2.25262 0.684912C1.86831 0.843127 1.53967 1.11194 1.3084 1.45725C1.07712 1.80255 0.953644 2.20878 0.953629 2.62438C0.951492 3.17822 1.16934 3.71026 1.55929 4.10356C1.94924 4.49686 2.4794 4.71925 3.03324 4.72185V4.72185Z" fill="#3E3E3D"/>
<path d="M10.4343 11.61C10.4343 10.0119 11.1695 9.06051 12.5782 9.06051C13.8717 9.06051 14.4943 9.97347 14.4943 11.61V17.5764H17.9961V10.3799C17.9961 7.33554 16.2702 5.86338 13.8601 5.86338C13.1758 5.85363 12.5007 6.0213 11.9004 6.35006C11.3002 6.67882 10.7954 7.15745 10.4352 7.73931V6.20641H7.05847V17.5764H10.4343V11.61Z" fill="#3E3E3D"/>
</svg>
