<svg width="20" height="14" viewBox="0 0 20 14" fill="none" xmlns="http://www.w3.org/2000/svg">
<path d="M7.46356 12.6407C7.91559 12.553 8.34408 12.3711 8.72116 12.1068C9.09823 11.8425 9.41544 11.5019 9.65216 11.1069C10.0076 10.5379 10.1916 9.87856 10.1819 9.20774C10.2007 8.59373 10.0395 7.98761 9.71826 7.46401C9.39001 6.97029 8.90609 6.60051 8.34347 6.41349C8.68866 6.25105 8.99739 6.02041 9.25106 5.73547C9.6382 5.23578 9.834 4.61417 9.80313 3.98281C9.81998 3.33413 9.62802 2.69718 9.25553 2.16583C8.87892 1.72486 8.40273 1.3799 7.86635 1.15947C7.32997 0.939049 6.74881 0.849502 6.17096 0.898238H0.418091V12.8024H5.77791C6.34385 12.8063 6.90869 12.7521 7.46356 12.6407V12.6407ZM2.79249 2.96623H5.38307C5.85866 2.95289 6.33332 3.01561 6.78912 3.15204C6.99973 3.24186 7.17577 3.39717 7.29115 3.59493C7.40652 3.79269 7.45508 4.02237 7.42962 4.24991C7.4509 4.45174 7.41712 4.65557 7.33187 4.83974C7.24662 5.02392 7.11309 5.18158 6.94545 5.29597C6.56061 5.50795 6.12484 5.60994 5.68589 5.59076H2.7907L2.79249 2.96623ZM2.79249 10.738V7.56138H5.72163C6.12783 7.5474 6.53265 7.61608 6.91151 7.76327C7.15502 7.87044 7.35899 8.05097 7.49496 8.27966C7.63092 8.50835 7.69209 8.77378 7.66992 9.03891C7.70261 9.33646 7.64556 9.637 7.50611 9.90188C7.36667 10.1668 7.1512 10.3839 6.88739 10.5254C6.506 10.6829 6.0945 10.7543 5.68232 10.7344L2.79249 10.738Z" fill="#3E3E3D"/>
<path d="M12.1979 12.0182C13.0713 12.7331 14.1691 13.1168 15.2977 13.1017C15.9095 13.1377 16.5219 13.0416 17.0933 12.8199C17.6646 12.5983 18.1817 12.2563 18.6092 11.8172C19.0577 11.3926 19.3573 10.8346 19.4632 10.2262H17.1111C16.9956 10.4579 16.8346 10.6639 16.6376 10.8319C16.2726 11.1132 15.8198 11.2563 15.3593 11.2356C14.9136 11.2483 14.4734 11.1333 14.0908 10.9042C13.7907 10.6997 13.5483 10.4213 13.3872 10.0958C13.226 9.77035 13.1515 9.40882 13.1707 9.04614H19.5811C19.6013 8.46294 19.5762 7.87905 19.506 7.29974C19.4137 6.6476 19.1736 6.02519 18.8039 5.48008C18.432 4.91019 17.9052 4.45833 17.2853 4.17764C16.6324 3.89515 15.9268 3.75477 15.2155 3.76583C14.6354 3.74331 14.0568 3.83998 13.5155 4.04986C12.9742 4.25974 12.4817 4.57837 12.0684 4.98608C11.6419 5.4598 11.3148 6.01427 11.1064 6.61668C10.898 7.21909 10.8126 7.85719 10.8553 8.49319C10.7941 9.14434 10.8833 9.80085 11.1161 10.412C11.3489 11.0232 11.719 11.5727 12.1979 12.0182ZM13.8416 6.16614C14.0237 5.99236 14.2397 5.85807 14.4761 5.77168C14.7126 5.68529 14.9643 5.64866 15.2155 5.6641C15.7136 5.64834 16.1999 5.81693 16.5814 6.13755C16.7726 6.31563 16.9256 6.53079 17.0309 6.76992C17.1363 7.00904 17.1918 7.26712 17.1942 7.52842H13.227C13.281 7.02066 13.4957 6.54339 13.8398 6.16614H13.8416Z" fill="#3E3E3D"/>
<path d="M17.6499 1.58252H12.4768V2.78401H17.6499V1.58252Z" fill="#3E3E3D"/>
</svg>
