<svg width="24" height="18" viewBox="0 0 24 18" fill="none" xmlns="http://www.w3.org/2000/svg">
<path d="M2.40288 0.553874L10.2641 9.48725C10.4849 9.73843 10.7567 9.93964 11.0615 10.0775C11.3662 10.2153 11.6968 10.2866 12.0312 10.2866C12.3656 10.2866 12.6962 10.2153 13.0009 10.0775C13.3056 9.93964 13.5775 9.73843 13.7983 9.48725L21.5235 0.7087C21.5861 0.638746 21.6603 0.580025 21.7427 0.53508C21.4069 0.386856 21.0439 0.309764 20.6768 0.308657H3.38822C3.03604 0.308153 2.68732 0.37814 2.36261 0.514495C2.37514 0.528814 2.39035 0.539554 2.40288 0.553874Z" fill="#3E3E3D"/>
<path d="M22.934 1.56165C22.8992 1.655 22.8479 1.74138 22.7827 1.81671L15.0566 10.6006C14.6787 11.0308 14.2133 11.3754 13.6916 11.6115C13.1699 11.8476 12.6039 11.9697 12.0313 11.9697C11.4586 11.9697 10.8926 11.8476 10.3709 11.6115C9.8492 11.3754 9.38385 11.0308 9.00589 10.6006L1.14377 1.66636C1.12766 1.64846 1.11692 1.62787 1.1026 1.60908C0.850994 2.02445 0.717907 2.50077 0.717775 2.9864V15.0754C0.717422 15.4264 0.786223 15.774 0.92025 16.0984C1.05428 16.4228 1.2509 16.7177 1.4989 16.9661C1.74689 17.2145 2.04139 17.4116 2.36558 17.5462C2.68977 17.6808 3.03729 17.7501 3.3883 17.7504H20.6769C21.3852 17.7489 22.0639 17.4664 22.564 16.9648C23.0641 16.4632 23.3446 15.7836 23.3439 15.0754V2.98461C23.3447 2.48105 23.2026 1.9876 22.934 1.56165V1.56165Z" fill="#3E3E3D"/>
</svg>
